<svg width="563" height="235" viewBox="0 0 563 235" fill="none" xmlns="http://www.w3.org/2000/svg">
<rect y="235" width="235" height="563" rx="20" transform="rotate(-90 0 235)" fill="white" fill-opacity="0.04"/>
<rect x="0.5" y="234.5" width="234" height="562" rx="19.5" transform="rotate(-90 0.5 234.5)" stroke="white" stroke-opacity="0.12"/>
<mask id="mask0_329_143" style="mask-type:alpha" maskUnits="userSpaceOnUse" x="0" y="0" width="563" height="235">
<rect y="235" width="235" height="563" rx="20" transform="rotate(-90 0 235)" fill="white"/>
</mask>
<g mask="url(#mask0_329_143)">
<rect x="511" y="167" width="8" height="128" transform="rotate(90 511 167)" fill="url(#paint0_linear_329_143)"/>
<rect x="511" y="184" width="8" height="55" transform="rotate(90 511 184)" fill="url(#paint1_linear_329_143)"/>
<rect x="46" y="55" width="8" height="128" transform="rotate(-90 46 55)" fill="url(#paint2_linear_329_143)"/>
<rect x="46" y="38" width="8" height="55" transform="rotate(-90 46 38)" fill="url(#paint3_linear_329_143)"/>
<circle cx="152" cy="199" r="115" fill="url(#paint4_linear_329_143)"/>
<circle cx="129.857" cy="214" r="87.1429" fill="url(#paint5_linear_329_143)"/>
<circle cx="108.429" cy="241.143" r="52.8571" fill="url(#paint6_linear_329_143)"/>
<circle cx="426.5" cy="31.5" r="95.5" transform="rotate(-180 426.5 31.5)" fill="url(#paint7_linear_329_143)"/>
<circle cx="444.888" cy="19.0434" r="72.3665" transform="rotate(-180 444.888 19.0434)" fill="url(#paint8_linear_329_143)"/>
<circle cx="462.683" cy="-3.49693" r="43.8944" transform="rotate(-180 462.683 -3.49693)" fill="url(#paint9_linear_329_143)"/>
</g>
<defs>
<linearGradient id="paint0_linear_329_143" x1="515" y1="167" x2="515" y2="295" gradientUnits="userSpaceOnUse">
<stop stop-color="white" stop-opacity="0.05"/>
<stop offset="1" stop-color="white" stop-opacity="0"/>
</linearGradient>
<linearGradient id="paint1_linear_329_143" x1="515" y1="184" x2="515" y2="239" gradientUnits="userSpaceOnUse">
<stop stop-color="white" stop-opacity="0.05"/>
<stop offset="1" stop-color="white" stop-opacity="0"/>
</linearGradient>
<linearGradient id="paint2_linear_329_143" x1="50" y1="55" x2="50" y2="183" gradientUnits="userSpaceOnUse">
<stop stop-color="white" stop-opacity="0.05"/>
<stop offset="1" stop-color="white" stop-opacity="0"/>
</linearGradient>
<linearGradient id="paint3_linear_329_143" x1="50" y1="38" x2="50" y2="93" gradientUnits="userSpaceOnUse">
<stop stop-color="white" stop-opacity="0.05"/>
<stop offset="1" stop-color="white" stop-opacity="0"/>
</linearGradient>
<linearGradient id="paint4_linear_329_143" x1="152" y1="84" x2="152" y2="314" gradientUnits="userSpaceOnUse">
<stop stop-color="white" stop-opacity="0.08"/>
<stop offset="1" stop-color="white" stop-opacity="0"/>
</linearGradient>
<linearGradient id="paint5_linear_329_143" x1="129.857" y1="126.857" x2="129.857" y2="301.143" gradientUnits="userSpaceOnUse">
<stop stop-color="white" stop-opacity="0.08"/>
<stop offset="1" stop-color="white" stop-opacity="0"/>
</linearGradient>
<linearGradient id="paint6_linear_329_143" x1="108.429" y1="188.286" x2="108.429" y2="294" gradientUnits="userSpaceOnUse">
<stop stop-color="white" stop-opacity="0.08"/>
<stop offset="1" stop-color="white" stop-opacity="0"/>
</linearGradient>
<linearGradient id="paint7_linear_329_143" x1="426.5" y1="-64" x2="426.5" y2="127" gradientUnits="userSpaceOnUse">
<stop stop-color="white" stop-opacity="0.08"/>
<stop offset="1" stop-color="white" stop-opacity="0"/>
</linearGradient>
<linearGradient id="paint8_linear_329_143" x1="444.888" y1="-53.323" x2="444.888" y2="91.4099" gradientUnits="userSpaceOnUse">
<stop stop-color="white" stop-opacity="0.08"/>
<stop offset="1" stop-color="white" stop-opacity="0"/>
</linearGradient>
<linearGradient id="paint9_linear_329_143" x1="462.683" y1="-47.3913" x2="462.683" y2="40.3975" gradientUnits="userSpaceOnUse">
<stop stop-color="white" stop-opacity="0.08"/>
<stop offset="1" stop-color="white" stop-opacity="0"/>
</linearGradient>
</defs>
</svg>
