<svg width="520" height="342" viewBox="0 0 520 342" fill="none" xmlns="http://www.w3.org/2000/svg">
<rect width="160" height="160" rx="20" fill="white" fill-opacity="0.04"/>
<rect x="0.5" y="0.5" width="159" height="159" rx="19.5" stroke="white" stroke-opacity="0.12"/>
<rect x="20" y="17" width="8" height="128" fill="url(#paint0_linear_329_64)"/>
<rect x="36" y="17" width="8" height="128" fill="url(#paint1_linear_329_64)"/>
<rect x="52" y="17" width="8" height="128" fill="url(#paint2_linear_329_64)"/>
<rect x="68" y="17" width="8" height="128" fill="url(#paint3_linear_329_64)"/>
<rect x="84" y="17" width="8" height="128" fill="url(#paint4_linear_329_64)"/>
<rect x="100" y="17" width="8" height="128" fill="url(#paint5_linear_329_64)"/>
<rect x="116" y="17" width="8" height="128" fill="url(#paint6_linear_329_64)"/>
<rect x="132" y="17" width="8" height="128" fill="url(#paint7_linear_329_64)"/>
<rect x="340" width="160" height="160" rx="20" transform="rotate(90 340 0)" fill="white" fill-opacity="0.04"/>
<rect x="339.5" y="0.5" width="159" height="159" rx="19.5" transform="rotate(90 339.5 0.5)" stroke="white" stroke-opacity="0.12"/>
<rect x="323" y="20" width="8" height="128" transform="rotate(90 323 20)" fill="url(#paint8_linear_329_64)"/>
<rect x="323" y="36" width="8" height="128" transform="rotate(90 323 36)" fill="url(#paint9_linear_329_64)"/>
<rect x="323" y="52" width="8" height="128" transform="rotate(90 323 52)" fill="url(#paint10_linear_329_64)"/>
<rect x="323" y="68" width="8" height="128" transform="rotate(90 323 68)" fill="url(#paint11_linear_329_64)"/>
<rect x="323" y="84" width="8" height="128" transform="rotate(90 323 84)" fill="url(#paint12_linear_329_64)"/>
<rect x="323" y="100" width="8" height="128" transform="rotate(90 323 100)" fill="url(#paint13_linear_329_64)"/>
<rect x="323" y="116" width="8" height="128" transform="rotate(90 323 116)" fill="url(#paint14_linear_329_64)"/>
<rect x="323" y="132" width="8" height="128" transform="rotate(90 323 132)" fill="url(#paint15_linear_329_64)"/>
<rect x="340" y="342" width="160" height="160" rx="20" transform="rotate(-180 340 342)" fill="white" fill-opacity="0.04"/>
<rect x="339.5" y="341.5" width="159" height="159" rx="19.5" transform="rotate(-180 339.5 341.5)" stroke="white" stroke-opacity="0.12"/>
<rect x="320" y="325" width="8" height="128" transform="rotate(-180 320 325)" fill="url(#paint16_linear_329_64)"/>
<rect x="304" y="325" width="8" height="128" transform="rotate(-180 304 325)" fill="url(#paint17_linear_329_64)"/>
<rect x="288" y="325" width="8" height="128" transform="rotate(-180 288 325)" fill="url(#paint18_linear_329_64)"/>
<rect x="272" y="325" width="8" height="128" transform="rotate(-180 272 325)" fill="url(#paint19_linear_329_64)"/>
<rect x="256" y="325" width="8" height="128" transform="rotate(-180 256 325)" fill="url(#paint20_linear_329_64)"/>
<rect x="240" y="325" width="8" height="128" transform="rotate(-180 240 325)" fill="url(#paint21_linear_329_64)"/>
<rect x="224" y="325" width="8" height="128" transform="rotate(-180 224 325)" fill="url(#paint22_linear_329_64)"/>
<rect x="208" y="325" width="8" height="128" transform="rotate(-180 208 325)" fill="url(#paint23_linear_329_64)"/>
<rect y="342" width="160" height="160" rx="20" transform="rotate(-90 0 342)" fill="white" fill-opacity="0.04"/>
<rect x="0.5" y="341.5" width="159" height="159" rx="19.5" transform="rotate(-90 0.5 341.5)" stroke="white" stroke-opacity="0.12"/>
<rect x="17" y="322" width="8" height="128" transform="rotate(-90 17 322)" fill="url(#paint24_linear_329_64)"/>
<rect x="17" y="306" width="8" height="128" transform="rotate(-90 17 306)" fill="url(#paint25_linear_329_64)"/>
<rect x="17" y="290" width="8" height="128" transform="rotate(-90 17 290)" fill="url(#paint26_linear_329_64)"/>
<rect x="17" y="274" width="8" height="128" transform="rotate(-90 17 274)" fill="url(#paint27_linear_329_64)"/>
<rect x="17" y="258" width="8" height="128" transform="rotate(-90 17 258)" fill="url(#paint28_linear_329_64)"/>
<rect x="17" y="242" width="8" height="128" transform="rotate(-90 17 242)" fill="url(#paint29_linear_329_64)"/>
<rect x="17" y="226" width="8" height="128" transform="rotate(-90 17 226)" fill="url(#paint30_linear_329_64)"/>
<rect x="17" y="210" width="8" height="128" transform="rotate(-90 17 210)" fill="url(#paint31_linear_329_64)"/>
<rect x="360" width="160" height="160" rx="20" fill="white" fill-opacity="0.04"/>
<rect x="360.5" y="0.5" width="159" height="159" rx="19.5" stroke="white" stroke-opacity="0.12"/>
<rect x="380" y="17" width="8" height="128" fill="url(#paint32_linear_329_64)"/>
<rect x="396" y="17" width="8" height="128" fill="url(#paint33_linear_329_64)"/>
<rect x="412" y="17" width="8" height="128" fill="url(#paint34_linear_329_64)"/>
<rect x="428" y="17" width="8" height="128" fill="url(#paint35_linear_329_64)"/>
<rect x="444" y="17" width="8" height="128" fill="url(#paint36_linear_329_64)"/>
<rect x="460" y="17" width="8" height="128" fill="url(#paint37_linear_329_64)"/>
<rect x="476" y="17" width="8" height="128" fill="url(#paint38_linear_329_64)"/>
<rect x="492" y="17" width="8" height="128" fill="url(#paint39_linear_329_64)"/>
<rect x="360" y="342" width="160" height="160" rx="20" transform="rotate(-90 360 342)" fill="white" fill-opacity="0.04"/>
<rect x="360.5" y="341.5" width="159" height="159" rx="19.5" transform="rotate(-90 360.5 341.5)" stroke="white" stroke-opacity="0.12"/>
<rect x="377" y="322" width="8" height="128" transform="rotate(-90 377 322)" fill="url(#paint40_linear_329_64)"/>
<rect x="377" y="306" width="8" height="128" transform="rotate(-90 377 306)" fill="url(#paint41_linear_329_64)"/>
<rect x="377" y="290" width="8" height="128" transform="rotate(-90 377 290)" fill="url(#paint42_linear_329_64)"/>
<rect x="377" y="274" width="8" height="128" transform="rotate(-90 377 274)" fill="url(#paint43_linear_329_64)"/>
<rect x="377" y="258" width="8" height="128" transform="rotate(-90 377 258)" fill="url(#paint44_linear_329_64)"/>
<rect x="377" y="242" width="8" height="128" transform="rotate(-90 377 242)" fill="url(#paint45_linear_329_64)"/>
<rect x="377" y="226" width="8" height="128" transform="rotate(-90 377 226)" fill="url(#paint46_linear_329_64)"/>
<rect x="377" y="210" width="8" height="128" transform="rotate(-90 377 210)" fill="url(#paint47_linear_329_64)"/>
<defs>
<linearGradient id="paint0_linear_329_64" x1="24" y1="17" x2="24" y2="145" gradientUnits="userSpaceOnUse">
<stop stop-color="white" stop-opacity="0.05"/>
<stop offset="1" stop-color="white" stop-opacity="0"/>
</linearGradient>
<linearGradient id="paint1_linear_329_64" x1="40" y1="17" x2="40" y2="145" gradientUnits="userSpaceOnUse">
<stop stop-color="white" stop-opacity="0.05"/>
<stop offset="1" stop-color="white" stop-opacity="0"/>
</linearGradient>
<linearGradient id="paint2_linear_329_64" x1="56" y1="17" x2="56" y2="145" gradientUnits="userSpaceOnUse">
<stop stop-color="white" stop-opacity="0.05"/>
<stop offset="1" stop-color="white" stop-opacity="0"/>
</linearGradient>
<linearGradient id="paint3_linear_329_64" x1="72" y1="17" x2="72" y2="145" gradientUnits="userSpaceOnUse">
<stop stop-color="white" stop-opacity="0.05"/>
<stop offset="1" stop-color="white" stop-opacity="0"/>
</linearGradient>
<linearGradient id="paint4_linear_329_64" x1="88" y1="17" x2="88" y2="145" gradientUnits="userSpaceOnUse">
<stop stop-color="white" stop-opacity="0.05"/>
<stop offset="1" stop-color="white" stop-opacity="0"/>
</linearGradient>
<linearGradient id="paint5_linear_329_64" x1="104" y1="17" x2="104" y2="145" gradientUnits="userSpaceOnUse">
<stop stop-color="white" stop-opacity="0.05"/>
<stop offset="1" stop-color="white" stop-opacity="0"/>
</linearGradient>
<linearGradient id="paint6_linear_329_64" x1="120" y1="17" x2="120" y2="145" gradientUnits="userSpaceOnUse">
<stop stop-color="white" stop-opacity="0.05"/>
<stop offset="1" stop-color="white" stop-opacity="0"/>
</linearGradient>
<linearGradient id="paint7_linear_329_64" x1="136" y1="17" x2="136" y2="145" gradientUnits="userSpaceOnUse">
<stop stop-color="white" stop-opacity="0.05"/>
<stop offset="1" stop-color="white" stop-opacity="0"/>
</linearGradient>
<linearGradient id="paint8_linear_329_64" x1="327" y1="20" x2="327" y2="148" gradientUnits="userSpaceOnUse">
<stop stop-color="white" stop-opacity="0.05"/>
<stop offset="1" stop-color="white" stop-opacity="0"/>
</linearGradient>
<linearGradient id="paint9_linear_329_64" x1="327" y1="36" x2="327" y2="164" gradientUnits="userSpaceOnUse">
<stop stop-color="white" stop-opacity="0.05"/>
<stop offset="1" stop-color="white" stop-opacity="0"/>
</linearGradient>
<linearGradient id="paint10_linear_329_64" x1="327" y1="52" x2="327" y2="180" gradientUnits="userSpaceOnUse">
<stop stop-color="white" stop-opacity="0.05"/>
<stop offset="1" stop-color="white" stop-opacity="0"/>
</linearGradient>
<linearGradient id="paint11_linear_329_64" x1="327" y1="68" x2="327" y2="196" gradientUnits="userSpaceOnUse">
<stop stop-color="white" stop-opacity="0.05"/>
<stop offset="1" stop-color="white" stop-opacity="0"/>
</linearGradient>
<linearGradient id="paint12_linear_329_64" x1="327" y1="84" x2="327" y2="212" gradientUnits="userSpaceOnUse">
<stop stop-color="white" stop-opacity="0.05"/>
<stop offset="1" stop-color="white" stop-opacity="0"/>
</linearGradient>
<linearGradient id="paint13_linear_329_64" x1="327" y1="100" x2="327" y2="228" gradientUnits="userSpaceOnUse">
<stop stop-color="white" stop-opacity="0.05"/>
<stop offset="1" stop-color="white" stop-opacity="0"/>
</linearGradient>
<linearGradient id="paint14_linear_329_64" x1="327" y1="116" x2="327" y2="244" gradientUnits="userSpaceOnUse">
<stop stop-color="white" stop-opacity="0.05"/>
<stop offset="1" stop-color="white" stop-opacity="0"/>
</linearGradient>
<linearGradient id="paint15_linear_329_64" x1="327" y1="132" x2="327" y2="260" gradientUnits="userSpaceOnUse">
<stop stop-color="white" stop-opacity="0.05"/>
<stop offset="1" stop-color="white" stop-opacity="0"/>
</linearGradient>
<linearGradient id="paint16_linear_329_64" x1="324" y1="325" x2="324" y2="453" gradientUnits="userSpaceOnUse">
<stop stop-color="white" stop-opacity="0.05"/>
<stop offset="1" stop-color="white" stop-opacity="0"/>
</linearGradient>
<linearGradient id="paint17_linear_329_64" x1="308" y1="325" x2="308" y2="453" gradientUnits="userSpaceOnUse">
<stop stop-color="white" stop-opacity="0.05"/>
<stop offset="1" stop-color="white" stop-opacity="0"/>
</linearGradient>
<linearGradient id="paint18_linear_329_64" x1="292" y1="325" x2="292" y2="453" gradientUnits="userSpaceOnUse">
<stop stop-color="white" stop-opacity="0.05"/>
<stop offset="1" stop-color="white" stop-opacity="0"/>
</linearGradient>
<linearGradient id="paint19_linear_329_64" x1="276" y1="325" x2="276" y2="453" gradientUnits="userSpaceOnUse">
<stop stop-color="white" stop-opacity="0.05"/>
<stop offset="1" stop-color="white" stop-opacity="0"/>
</linearGradient>
<linearGradient id="paint20_linear_329_64" x1="260" y1="325" x2="260" y2="453" gradientUnits="userSpaceOnUse">
<stop stop-color="white" stop-opacity="0.05"/>
<stop offset="1" stop-color="white" stop-opacity="0"/>
</linearGradient>
<linearGradient id="paint21_linear_329_64" x1="244" y1="325" x2="244" y2="453" gradientUnits="userSpaceOnUse">
<stop stop-color="white" stop-opacity="0.05"/>
<stop offset="1" stop-color="white" stop-opacity="0"/>
</linearGradient>
<linearGradient id="paint22_linear_329_64" x1="228" y1="325" x2="228" y2="453" gradientUnits="userSpaceOnUse">
<stop stop-color="white" stop-opacity="0.05"/>
<stop offset="1" stop-color="white" stop-opacity="0"/>
</linearGradient>
<linearGradient id="paint23_linear_329_64" x1="212" y1="325" x2="212" y2="453" gradientUnits="userSpaceOnUse">
<stop stop-color="white" stop-opacity="0.05"/>
<stop offset="1" stop-color="white" stop-opacity="0"/>
</linearGradient>
<linearGradient id="paint24_linear_329_64" x1="21" y1="322" x2="21" y2="450" gradientUnits="userSpaceOnUse">
<stop stop-color="white" stop-opacity="0.05"/>
<stop offset="1" stop-color="white" stop-opacity="0"/>
</linearGradient>
<linearGradient id="paint25_linear_329_64" x1="21" y1="306" x2="21" y2="434" gradientUnits="userSpaceOnUse">
<stop stop-color="white" stop-opacity="0.05"/>
<stop offset="1" stop-color="white" stop-opacity="0"/>
</linearGradient>
<linearGradient id="paint26_linear_329_64" x1="21" y1="290" x2="21" y2="418" gradientUnits="userSpaceOnUse">
<stop stop-color="white" stop-opacity="0.05"/>
<stop offset="1" stop-color="white" stop-opacity="0"/>
</linearGradient>
<linearGradient id="paint27_linear_329_64" x1="21" y1="274" x2="21" y2="402" gradientUnits="userSpaceOnUse">
<stop stop-color="white" stop-opacity="0.05"/>
<stop offset="1" stop-color="white" stop-opacity="0"/>
</linearGradient>
<linearGradient id="paint28_linear_329_64" x1="21" y1="258" x2="21" y2="386" gradientUnits="userSpaceOnUse">
<stop stop-color="white" stop-opacity="0.05"/>
<stop offset="1" stop-color="white" stop-opacity="0"/>
</linearGradient>
<linearGradient id="paint29_linear_329_64" x1="21" y1="242" x2="21" y2="370" gradientUnits="userSpaceOnUse">
<stop stop-color="white" stop-opacity="0.05"/>
<stop offset="1" stop-color="white" stop-opacity="0"/>
</linearGradient>
<linearGradient id="paint30_linear_329_64" x1="21" y1="226" x2="21" y2="354" gradientUnits="userSpaceOnUse">
<stop stop-color="white" stop-opacity="0.05"/>
<stop offset="1" stop-color="white" stop-opacity="0"/>
</linearGradient>
<linearGradient id="paint31_linear_329_64" x1="21" y1="210" x2="21" y2="338" gradientUnits="userSpaceOnUse">
<stop stop-color="white" stop-opacity="0.05"/>
<stop offset="1" stop-color="white" stop-opacity="0"/>
</linearGradient>
<linearGradient id="paint32_linear_329_64" x1="384" y1="17" x2="384" y2="145" gradientUnits="userSpaceOnUse">
<stop stop-color="white" stop-opacity="0.05"/>
<stop offset="1" stop-color="white" stop-opacity="0"/>
</linearGradient>
<linearGradient id="paint33_linear_329_64" x1="400" y1="17" x2="400" y2="145" gradientUnits="userSpaceOnUse">
<stop stop-color="white" stop-opacity="0.05"/>
<stop offset="1" stop-color="white" stop-opacity="0"/>
</linearGradient>
<linearGradient id="paint34_linear_329_64" x1="416" y1="17" x2="416" y2="145" gradientUnits="userSpaceOnUse">
<stop stop-color="white" stop-opacity="0.05"/>
<stop offset="1" stop-color="white" stop-opacity="0"/>
</linearGradient>
<linearGradient id="paint35_linear_329_64" x1="432" y1="17" x2="432" y2="145" gradientUnits="userSpaceOnUse">
<stop stop-color="white" stop-opacity="0.05"/>
<stop offset="1" stop-color="white" stop-opacity="0"/>
</linearGradient>
<linearGradient id="paint36_linear_329_64" x1="448" y1="17" x2="448" y2="145" gradientUnits="userSpaceOnUse">
<stop stop-color="white" stop-opacity="0.05"/>
<stop offset="1" stop-color="white" stop-opacity="0"/>
</linearGradient>
<linearGradient id="paint37_linear_329_64" x1="464" y1="17" x2="464" y2="145" gradientUnits="userSpaceOnUse">
<stop stop-color="white" stop-opacity="0.05"/>
<stop offset="1" stop-color="white" stop-opacity="0"/>
</linearGradient>
<linearGradient id="paint38_linear_329_64" x1="480" y1="17" x2="480" y2="145" gradientUnits="userSpaceOnUse">
<stop stop-color="white" stop-opacity="0.05"/>
<stop offset="1" stop-color="white" stop-opacity="0"/>
</linearGradient>
<linearGradient id="paint39_linear_329_64" x1="496" y1="17" x2="496" y2="145" gradientUnits="userSpaceOnUse">
<stop stop-color="white" stop-opacity="0.05"/>
<stop offset="1" stop-color="white" stop-opacity="0"/>
</linearGradient>
<linearGradient id="paint40_linear_329_64" x1="381" y1="322" x2="381" y2="450" gradientUnits="userSpaceOnUse">
<stop stop-color="white" stop-opacity="0.05"/>
<stop offset="1" stop-color="white" stop-opacity="0"/>
</linearGradient>
<linearGradient id="paint41_linear_329_64" x1="381" y1="306" x2="381" y2="434" gradientUnits="userSpaceOnUse">
<stop stop-color="white" stop-opacity="0.05"/>
<stop offset="1" stop-color="white" stop-opacity="0"/>
</linearGradient>
<linearGradient id="paint42_linear_329_64" x1="381" y1="290" x2="381" y2="418" gradientUnits="userSpaceOnUse">
<stop stop-color="white" stop-opacity="0.05"/>
<stop offset="1" stop-color="white" stop-opacity="0"/>
</linearGradient>
<linearGradient id="paint43_linear_329_64" x1="381" y1="274" x2="381" y2="402" gradientUnits="userSpaceOnUse">
<stop stop-color="white" stop-opacity="0.05"/>
<stop offset="1" stop-color="white" stop-opacity="0"/>
</linearGradient>
<linearGradient id="paint44_linear_329_64" x1="381" y1="258" x2="381" y2="386" gradientUnits="userSpaceOnUse">
<stop stop-color="white" stop-opacity="0.05"/>
<stop offset="1" stop-color="white" stop-opacity="0"/>
</linearGradient>
<linearGradient id="paint45_linear_329_64" x1="381" y1="242" x2="381" y2="370" gradientUnits="userSpaceOnUse">
<stop stop-color="white" stop-opacity="0.05"/>
<stop offset="1" stop-color="white" stop-opacity="0"/>
</linearGradient>
<linearGradient id="paint46_linear_329_64" x1="381" y1="226" x2="381" y2="354" gradientUnits="userSpaceOnUse">
<stop stop-color="white" stop-opacity="0.05"/>
<stop offset="1" stop-color="white" stop-opacity="0"/>
</linearGradient>
<linearGradient id="paint47_linear_329_64" x1="381" y1="210" x2="381" y2="338" gradientUnits="userSpaceOnUse">
<stop stop-color="white" stop-opacity="0.05"/>
<stop offset="1" stop-color="white" stop-opacity="0"/>
</linearGradient>
</defs>
</svg>
