<svg width="115" height="36" viewBox="0 0 115 36" fill="none" xmlns="http://www.w3.org/2000/svg">
<path fill-rule="evenodd" clip-rule="evenodd" d="M11.5929 3.07582C13.5155 2.26407 15.5762 1.84619 17.6572 1.84619V9.92311C16.6166 9.92311 15.5863 10.132 14.6251 10.538C13.6638 10.9439 12.7903 11.5388 12.0546 12.2888C11.3188 13.0388 10.7352 13.9292 10.3371 14.9091C9.93884 15.8891 9.73393 16.9393 9.73393 18C9.73393 19.0607 9.93884 20.111 10.3371 21.091C10.7352 22.0709 11.3188 22.9613 12.0546 23.7113C12.7903 24.4613 13.6638 25.0562 14.6251 25.4621C15.5863 25.8681 16.6166 26.077 17.6572 26.077C18.6977 26.077 19.728 25.8681 20.6893 25.4621C21.6506 25.0562 22.524 24.4613 23.2597 23.7113C23.9955 22.9613 24.5791 22.0709 24.9772 21.091C25.3755 20.111 25.5804 19.0608 25.5804 18H33.5036C33.5036 20.1214 33.0937 22.222 32.2974 24.1819C31.501 26.1418 30.3338 27.9225 28.8623 29.4226C27.3908 30.9226 25.644 32.1124 23.7214 32.9243C21.7988 33.736 19.7381 34.1539 17.6572 34.1539C15.8363 34.1539 14.031 33.8339 12.3202 33.2101C12.0757 33.121 11.8333 33.0257 11.5929 32.9243C9.91068 32.2139 8.36299 31.2141 7.01653 29.9704C6.82418 29.7927 6.63593 29.6101 6.45199 29.4226C5.0725 28.0162 3.96042 26.3633 3.17059 24.5472C3.11793 24.4262 3.06671 24.3044 3.01693 24.1819C2.4197 22.712 2.03981 21.1629 1.88719 19.5853C1.84102 19.108 1.81565 18.6281 1.81136 18.1471L1.81077 18.0498L1.8107 18C1.8107 15.8787 2.22062 13.7781 3.01693 11.8182C3.81333 9.85831 4.98053 8.07761 6.45199 6.57751C7.92354 5.07751 9.67036 3.88767 11.5929 3.07582ZM22.9402 18.0001C22.9402 20.9739 20.5754 23.3846 17.6581 23.3846C14.7408 23.3846 12.376 20.9739 12.376 18.0001C12.376 18.0001 12.376 18 12.376 18C12.376 15.0261 14.7408 12.6154 17.6581 12.6154C17.6581 12.6154 17.6582 12.6154 17.6582 12.6154C17.6623 12.6154 17.6665 12.6154 17.6706 12.6154C19.0681 12.6188 20.3381 13.1753 21.281 14.0816C21.3189 14.118 21.3563 14.155 21.3932 14.1926C21.4303 14.2304 21.4668 14.2687 21.5026 14.3074C22.3455 15.2191 22.8798 16.4305 22.9354 17.7682C22.9387 17.8453 22.9403 17.9226 22.9403 18.0001H22.9402Z" fill="white"/>
<path d="M41.7793 11.9307H39.8112V23.0768H41.7793V11.9307Z" fill="white"/>
<path d="M43.0645 19.128C43.0645 21.7076 44.814 23.2999 47.1257 23.2999C49.4375 23.2999 51.187 21.7076 51.187 19.128C51.187 16.5485 49.4375 14.9562 47.1257 14.9562C44.814 14.9562 43.0645 16.5485 43.0645 19.128ZM45.0326 19.128C45.0326 17.5994 45.9074 16.7077 47.1257 16.7077C48.3441 16.7077 49.2188 17.5994 49.2188 19.128C49.2188 20.6566 48.3441 21.5483 47.1257 21.5483C45.9074 21.5483 45.0326 20.6566 45.0326 19.128Z" fill="white"/>
<path d="M58.2208 15.1791V16.2459H58.0646C57.596 15.5613 56.8462 14.9562 55.5029 14.9562C53.6597 14.9562 52.004 16.5485 52.004 19.0006C52.004 21.4528 53.6597 23.0451 55.5029 23.0451C56.8462 23.0451 57.596 22.4241 58.0333 21.8031H58.1895V22.5674C58.1895 24.096 57.3148 24.7966 56.034 24.7966C54.7531 24.7966 54.0971 24.096 53.8315 23.1884L52.0665 23.9686C52.4726 25.1628 53.6597 26.4845 56.0652 26.4845C58.5332 26.4845 60.1577 25.1628 60.1577 22.6151V15.1791H58.2208ZM56.0965 21.3254C54.8781 21.3254 53.9721 20.4337 53.9721 19.0006C53.9721 17.5676 54.8781 16.6759 56.0965 16.6759C57.3148 16.6759 58.2208 17.5676 58.2208 19.0006C58.2208 20.4337 57.3148 21.3254 56.0965 21.3254Z" fill="white"/>
<path d="M61.4307 19.128C61.4307 21.7076 63.1801 23.2999 65.4919 23.2999C67.8037 23.2999 69.553 21.7076 69.553 19.128C69.553 16.5485 67.8037 14.9562 65.4919 14.9562C63.1801 14.9562 61.4307 16.5485 61.4307 19.128ZM63.3988 19.128C63.3988 17.5994 64.2735 16.7077 65.4919 16.7077C66.7103 16.7077 67.585 17.5994 67.585 19.128C67.585 20.6566 66.7103 21.5483 65.4919 21.5483C64.2735 21.5483 63.3988 20.6566 63.3988 19.128Z" fill="white"/>
<path d="M71.0975 12.8861C71.0975 13.6982 71.7069 14.2555 72.4884 14.2555C73.2689 14.2555 73.8783 13.6982 73.8783 12.8861C73.8783 12.0741 73.2689 11.5167 72.4884 11.5167C71.7069 11.5167 71.0975 12.0741 71.0975 12.8861ZM73.4718 15.179H71.5041V23.0769H73.4718V15.179Z" fill="white"/>
<path d="M75.2269 26.2616H77.1955V22.0579H77.3512C77.7886 22.6948 78.5383 23.2999 79.8821 23.2999C81.7248 23.2999 83.381 21.7076 83.381 19.128C83.381 16.5485 81.7248 14.9562 79.8821 14.9562C78.5383 14.9562 77.7886 15.5613 77.3204 16.246H77.1638V15.1791H75.2269V26.2616ZM79.2881 21.5802C78.0702 21.5802 77.1638 20.6885 77.1638 19.128C77.1638 17.5676 78.0702 16.6759 79.2881 16.6759C80.5069 16.6759 81.4124 17.5676 81.4124 19.128C81.4124 20.6885 80.5069 21.5802 79.2881 21.5802Z" fill="white"/>
<path d="M84.5291 17.3925C84.5291 18.9529 85.8095 19.5261 87.434 19.8446L87.8406 19.9242C88.8086 20.1153 89.246 20.3541 89.246 20.8637C89.246 21.3732 88.8086 21.7713 87.9031 21.7713C86.9967 21.7713 86.2632 21.3891 86.0595 20.2426L84.2475 20.7203C84.5137 22.3763 85.872 23.2999 87.9031 23.2999C89.8708 23.2999 91.1521 22.3605 91.1521 20.7045C91.1521 19.0484 89.84 18.6026 88.0905 18.2523L87.6839 18.1726C86.8717 18.0134 86.4343 17.7905 86.4343 17.2651C86.4343 16.7874 86.8409 16.4848 87.5907 16.4848C88.3404 16.4848 88.8711 16.8033 89.0585 17.6631L90.8397 17.1058C90.4648 15.832 89.3247 14.9562 87.5907 14.9562C85.7471 14.9562 84.5291 15.832 84.5291 17.3925Z" fill="white"/>
<path d="M99.9918 23.077V15.1792H98.0241V19.2555C98.0241 20.7204 97.3214 21.5803 96.118 21.5803C95.0558 21.5803 94.4627 20.9912 94.4627 19.7969V15.1792H92.4941V19.8924C92.4941 21.851 93.6976 23.2044 95.5095 23.2044C96.9302 23.2044 97.5867 22.5675 97.8991 21.8987H98.0549V23.077H99.9918Z" fill="white"/>
<path d="M101.738 15.179V23.0769H103.706V18.3636C103.706 17.2809 104.206 16.6758 105.112 16.6758C105.893 16.6758 106.361 17.1216 106.361 17.9815V23.0769H108.33V18.3636C108.33 17.2809 108.83 16.6758 109.735 16.6758C110.517 16.6758 110.985 17.1216 110.985 17.9815V23.0769H112.954V17.8859C112.954 15.9752 111.797 15.0516 110.36 15.0516C109.095 15.0516 108.517 15.6249 108.143 16.2936H107.986C107.626 15.5453 106.986 15.0516 105.862 15.0516C104.737 15.0516 104.128 15.5612 103.831 16.1663H103.675V15.179H101.738Z" fill="white"/>
</svg>
