<svg width="116" height="30" viewBox="0 0 116 30" fill="none" xmlns="http://www.w3.org/2000/svg">
<path d="M34.4905 9.44058H37.2969V20.8125H34.4905V9.44058ZM38.4102 16.5187C38.4102 13.7062 40.1314 12.0281 42.7882 12.0281C45.445 12.0281 47.1663 13.7062 47.1663 16.5187C47.1663 19.3312 45.4824 21.0187 42.7882 21.0187C40.094 21.0187 38.4102 19.3781 38.4102 16.5187ZM44.3505 16.5187C44.3505 14.9718 43.7424 14.0625 42.7882 14.0625C41.834 14.0625 41.2353 15 41.2353 16.5187C41.2353 18.0375 41.8247 18.9562 42.7882 18.9562C43.7518 18.9562 44.3505 18.0937 44.3505 16.5281V16.5187ZM48.2234 21.3656H50.9176C51.0458 21.6511 51.2626 21.8874 51.5356 22.0395C51.8087 22.1914 52.1235 22.2511 52.4331 22.2093C53.4995 22.2093 54.0608 21.6281 54.0608 20.7843V19.2093H54.0047C53.7811 19.6921 53.4182 20.0965 52.963 20.3706C52.5078 20.6446 51.981 20.7757 51.4508 20.7468C49.4021 20.7468 48.0456 19.1812 48.0456 16.4906C48.0456 13.8 49.3366 12.1031 51.4882 12.1031C52.0351 12.0816 52.5754 12.2281 53.0369 12.523C53.4984 12.8179 53.8589 13.2471 54.0702 13.7531V12.1875H56.8766V20.7187C56.8766 22.7718 55.0711 24.0468 52.405 24.0468C49.926 24.0468 48.3824 22.9312 48.2234 21.375V21.3656ZM54.0702 16.5093C54.0702 15.1406 53.4434 14.2781 52.4518 14.2781C51.4602 14.2781 50.8521 15.1312 50.8521 16.5093C50.8521 17.8875 51.4508 18.6656 52.4518 18.6656C53.4527 18.6656 54.0702 17.9062 54.0702 16.5187V16.5093ZM57.9337 16.5093C57.9337 13.6968 59.655 12.0187 62.3118 12.0187C64.9685 12.0187 66.6992 13.6968 66.6992 16.5093C66.6992 19.3218 65.0153 21.0093 62.3118 21.0093C59.6082 21.0093 57.9337 19.3781 57.9337 16.5187V16.5093ZM63.874 16.5093C63.874 14.9625 63.266 14.0531 62.3118 14.0531C61.3576 14.0531 60.8056 15 60.8056 16.5281C60.8056 18.0562 61.395 18.9656 62.3492 18.9656C63.3034 18.9656 63.874 18.0937 63.874 16.5281V16.5093ZM67.7656 10.1437C67.7583 9.85974 67.8352 9.57999 67.9867 9.33991C68.1382 9.09981 68.3574 8.91021 68.6166 8.79512C68.8757 8.68004 69.1631 8.64465 69.4423 8.69344C69.7215 8.74225 69.98 8.87304 70.185 9.06923C70.39 9.26543 70.5322 9.51821 70.5937 9.79552C70.6552 10.0728 70.6331 10.3621 70.5302 10.6269C70.4274 10.8916 70.2484 11.1197 70.016 11.2824C69.7838 11.4451 69.5084 11.535 69.225 11.5406C69.0372 11.5535 68.8487 11.5274 68.6714 11.4638C68.494 11.4002 68.3318 11.3007 68.1947 11.1712C68.0577 11.0418 67.9488 10.8854 67.875 10.7117C67.8011 10.5382 67.7639 10.3512 67.7656 10.1625V10.1437ZM67.7656 12.2062H70.5721V20.8125H67.7656V12.2062ZM80.7595 16.5093C80.7595 19.3218 79.5153 20.925 77.3824 20.925C76.8355 20.9601 76.291 20.8261 75.8225 20.5411C75.354 20.2561 74.9842 19.8337 74.7631 19.3312H74.7069V23.5687H71.9005V12.1875H74.7069V13.725H74.7631C74.9739 13.2141 75.3367 12.7808 75.802 12.4839C76.2673 12.187 76.8126 12.0409 77.3637 12.0656C79.5153 12.1031 80.7969 13.7156 80.7969 16.5281L80.7595 16.5093ZM77.9531 16.5093C77.9531 15.1406 77.3263 14.2687 76.344 14.2687C75.3618 14.2687 74.735 15.15 74.7256 16.5093C74.7163 17.8687 75.3618 18.7406 76.344 18.7406C77.3263 18.7406 77.9531 17.8875 77.9531 16.5281V16.5093ZM85.5773 12.0093C87.9066 12.0093 89.3192 13.1156 89.3847 14.8875H86.8308C86.8308 14.2781 86.3256 13.8937 85.5492 13.8937C84.7727 13.8937 84.4266 14.1937 84.4266 14.6343C84.4266 15.075 84.7353 15.2156 85.3621 15.3468L87.1582 15.7125C88.8702 16.0781 89.5998 16.7718 89.5998 18.075C89.5998 19.8562 87.9814 21 85.596 21C83.2105 21 81.6482 19.8562 81.5266 18.1031H84.2302C84.3144 18.7406 84.8195 19.1156 85.6427 19.1156C86.466 19.1156 86.8402 18.8437 86.8402 18.3937C86.8402 17.9437 86.5782 17.85 85.9047 17.7093L84.2863 17.3625C82.6118 17.0156 81.7324 16.125 81.7324 14.8125C81.7511 13.125 83.2573 12.0281 85.5773 12.0281V12.0093ZM98.964 20.7937H96.2605V19.1906H96.2043C96.0556 19.7288 95.7282 20.1999 95.2754 20.5257C94.8226 20.8514 94.2726 21.0121 93.716 20.9812C93.2896 21.0055 92.863 20.9378 92.4649 20.7826C92.0669 20.6275 91.7067 20.3886 91.4088 20.082C91.1108 19.7754 90.8819 19.4082 90.7378 19.0053C90.5935 18.6025 90.5373 18.1733 90.5727 17.7468V12.1875H93.3792V17.1C93.3792 18.1218 93.9031 18.6656 94.7731 18.6656C94.977 18.666 95.1791 18.6227 95.3652 18.5386C95.5504 18.4546 95.717 18.3316 95.8517 18.178C95.9854 18.0243 96.0865 17.8437 96.1454 17.6481C96.2043 17.4525 96.2221 17.2464 96.195 17.0437V12.1875H99.0014L98.964 20.7937ZM100.32 12.1875H103.033V13.8468H103.09C103.238 13.3157 103.559 12.8491 104.001 12.52C104.442 12.1909 104.981 12.0179 105.531 12.0281C106.091 11.9832 106.647 12.1511 107.09 12.4985C107.531 12.846 107.827 13.3473 107.917 13.9031H107.973C108.142 13.3414 108.494 12.8524 108.972 12.513C109.449 12.1735 110.026 12.0029 110.611 12.0281C110.992 12.0152 111.372 12.083 111.726 12.227C112.08 12.3709 112.399 12.588 112.664 12.8638C112.929 13.1397 113.133 13.4683 113.263 13.8282C113.392 14.1881 113.445 14.5714 113.417 14.9531V20.8125H110.611V15.7031C110.611 14.7656 110.19 14.3343 109.404 14.3343C109.229 14.3328 109.055 14.369 108.895 14.4405C108.735 14.5119 108.592 14.6169 108.476 14.7484C108.36 14.88 108.273 15.0348 108.222 15.2027C108.17 15.3707 108.156 15.5477 108.179 15.7218V20.8125H105.512V15.6656C105.512 14.8031 105.091 14.3343 104.324 14.3343C104.148 14.3344 103.972 14.3721 103.811 14.445C103.649 14.5179 103.504 14.6243 103.387 14.7571C103.269 14.89 103.181 15.0464 103.128 15.216C103.075 15.3855 103.059 15.5642 103.08 15.7406V20.8125H100.274L100.32 12.1875Z" fill="white"/>
<path d="M26.6422 9.95609C26.1662 8.86518 25.5361 7.84852 24.7712 6.93734C23.6407 5.55016 22.2298 4.41864 20.6315 3.61728C19.0331 2.81592 17.2835 2.36287 15.4978 2.28796C13.7121 2.21304 11.9309 2.51795 10.2713 3.18264C8.61167 3.84732 7.11135 4.8567 5.86905 6.14433C4.62675 7.43196 3.67064 8.96867 3.06365 10.6533C2.45666 12.3379 2.21254 14.1323 2.34739 15.9182C2.48224 17.7042 2.99296 19.4413 3.84597 21.0152C4.69899 22.5892 5.87494 23.9642 7.29642 25.0498C8.20852 25.7604 9.21636 26.338 10.29 26.7655C11.7952 27.3836 13.4062 27.702 15.0329 27.703C18.3907 27.6956 21.6086 26.3542 23.9812 23.9729C26.3538 21.5917 27.6875 18.3649 27.69 14.9998C27.6924 13.2641 27.3357 11.5466 26.6422 9.95609ZM15.0235 4.86545C16.4844 4.8653 17.9275 5.18527 19.2519 5.80295C18.929 5.9428 18.5894 6.04048 18.2416 6.09359C17.0971 6.25961 16.0369 6.79209 15.2192 7.61156C14.4015 8.43102 13.8702 9.49353 13.7045 10.6405C13.6318 11.2837 13.3398 11.8821 12.878 12.3347C12.4161 12.7873 11.8126 13.0663 11.1693 13.1248C10.0248 13.2909 8.96463 13.8234 8.14694 14.6428C7.32924 15.4623 6.79789 16.5248 6.63223 17.6717C6.57614 18.2833 6.31575 18.8581 5.8932 19.303C5.16413 17.7592 4.83661 16.0556 4.94113 14.3508C5.04564 12.6461 5.57878 10.9955 6.49094 9.55268C7.4031 8.10995 8.66463 6.92188 10.1582 6.09906C11.6517 5.27625 13.3286 4.84544 15.0329 4.8467L15.0235 4.86545ZM7.28707 21.5623C7.39933 21.4592 7.51158 21.3655 7.62384 21.253C8.45609 20.4444 8.99031 19.3769 9.13933 18.2248C9.19974 17.5772 9.48825 16.9723 9.95319 16.5186C10.4006 16.0519 11.0028 15.7651 11.6464 15.7123C12.7909 15.5463 13.8511 15.0138 14.6688 14.1943C15.4865 13.3749 16.0178 12.3124 16.1835 11.1655C16.224 10.4881 16.514 9.84996 16.9974 9.37484C17.4559 8.9172 18.0637 8.64087 18.7093 8.5967C19.7607 8.45174 20.7413 7.98332 21.5158 7.25609C22.3976 7.98928 23.1447 8.8713 23.7235 9.86234C23.688 9.91043 23.6472 9.95449 23.6019 9.99359C23.1554 10.4644 22.554 10.7575 21.9087 10.8186C20.763 10.9817 19.7012 11.5133 18.8829 12.3332C18.0648 13.1532 17.5343 14.2173 17.3716 15.3655C17.3056 16.0108 17.0191 16.6136 16.5605 17.0714C16.1018 17.5294 15.4994 17.8143 14.8551 17.878C13.7073 18.0427 12.6432 18.5742 11.8207 19.3932C10.9983 20.2124 10.4614 21.2756 10.29 22.4248C10.2396 22.883 10.0826 23.323 9.83157 23.7092C8.87177 23.1381 8.01215 22.4128 7.28707 21.5623ZM15.0235 25.1811C14.0743 25.1821 13.1295 25.0496 12.2171 24.7873C12.5292 24.2042 12.7321 23.5687 12.8158 22.9123C12.8813 22.2684 13.1666 21.6668 13.6233 21.2091C14.08 20.7514 14.6803 20.4656 15.3229 20.3998C16.469 20.2357 17.5314 19.704 18.3509 18.8844C19.1704 18.0648 19.7032 17.0012 19.8693 15.853C19.9349 15.209 20.2201 14.6074 20.6768 14.1497C21.1335 13.692 21.7338 13.4062 22.3764 13.3405C23.2389 13.2281 24.061 12.9062 24.7712 12.403C25.1657 13.901 25.2123 15.4696 24.9078 16.9886C24.6033 18.5075 23.9556 19.9364 23.0145 21.1656C22.0734 22.3947 20.8639 23.3915 19.4787 24.0794C18.0935 24.7674 16.5695 25.1282 15.0235 25.1342V25.1811Z" fill="white"/>
</svg>
