<svg width="111" height="28" viewBox="0 0 111 28" fill="none" xmlns="http://www.w3.org/2000/svg">
<g clip-path="url(#clip0_329_9462)">
<path d="M32.324 19.664H40.2681V17.2054H35.1475V7.94495H32.324V19.664Z" fill="white"/>
<path d="M44.9739 18.025C43.8413 18.025 43.251 17.0088 43.251 15.4845C43.251 13.9602 43.8413 12.9276 44.9739 12.9276C46.1065 12.9276 46.7127 13.9602 46.7127 15.4845C46.7127 17.0088 46.1065 18.025 44.9739 18.025ZM44.9898 19.9262C47.6219 19.9262 49.3447 18.0086 49.3447 15.4845C49.3447 12.9604 47.6219 11.0427 44.9898 11.0427C42.3737 11.0427 40.6189 12.9604 40.6189 15.4845C40.6189 18.0086 42.3737 19.9262 44.9898 19.9262Z" fill="white"/>
<path d="M53.9007 22.565C55.113 22.565 56.1818 22.2863 56.8997 21.6307C57.5537 21.0243 57.9844 20.1064 57.9844 18.8444V11.2721H55.4959V12.1736H55.464C54.9854 11.4688 54.2516 11.0262 53.1669 11.0262C51.141 11.0262 49.7372 12.7636 49.7372 15.2221C49.7372 17.7954 51.444 19.205 53.2785 19.205C54.2676 19.205 54.8897 18.7952 55.3683 18.238H55.4321V19.0739C55.4321 20.0901 54.9695 20.6801 53.8688 20.6801C53.0073 20.6801 52.5766 20.3031 52.4331 19.8606H49.9126C50.1679 21.6143 51.6514 22.565 53.9007 22.565ZM53.8847 17.2218C52.9116 17.2218 52.2736 16.4022 52.2736 15.1402C52.2736 13.8618 52.9116 13.0422 53.8847 13.0422C54.9695 13.0422 55.5437 13.9929 55.5437 15.1238C55.5437 16.3039 55.0173 17.2218 53.8847 17.2218Z" fill="white"/>
<path d="M63.1012 18.025C61.9686 18.025 61.3784 17.0088 61.3784 15.4845C61.3784 13.9602 61.9686 12.9276 63.1012 12.9276C64.2338 12.9276 64.84 13.9602 64.84 15.4845C64.84 17.0088 64.2338 18.025 63.1012 18.025ZM63.1172 19.9262C65.7493 19.9262 67.4723 18.0086 67.4723 15.4845C67.4723 12.9604 65.7493 11.0427 63.1172 11.0427C60.501 11.0427 58.7463 12.9604 58.7463 15.4845C58.7463 18.0086 60.501 19.9262 63.1172 19.9262Z" fill="white"/>
<path d="M68.2315 19.664H70.8317V11.2722H68.2315V19.664ZM68.2315 10.1085H70.8317V7.94495H68.2315V10.1085Z" fill="white"/>
<path d="M71.9596 22.4339H74.5597V18.7952H74.5917C75.1021 19.5 75.8519 19.9261 76.9047 19.9261C79.0423 19.9261 80.462 18.1888 80.462 15.468C80.462 12.9439 79.138 11.0262 76.9685 11.0262C75.8519 11.0262 75.0543 11.5343 74.4959 12.2883H74.4481V11.2721H71.9596V22.4339ZM76.2347 17.861C75.1181 17.861 74.48 16.9267 74.48 15.5663C74.48 14.206 75.0543 13.1734 76.1869 13.1734C77.3035 13.1734 77.8299 14.124 77.8299 15.5663C77.8299 16.9923 77.2237 17.861 76.2347 17.861Z" fill="white"/>
<path d="M84.697 19.9261C86.8346 19.9261 88.4139 18.9755 88.4139 17.1398C88.4139 14.9927 86.7229 14.6157 85.2873 14.3699C84.2504 14.1732 83.3251 14.0912 83.3251 13.5012C83.3251 12.9767 83.8197 12.7308 84.4577 12.7308C85.1756 12.7308 85.6701 12.9603 85.7658 13.7142H88.1586C88.031 12.0588 86.7867 11.0262 84.4737 11.0262C82.5435 11.0262 80.9483 11.9441 80.9483 13.7142C80.9483 15.6811 82.4637 16.0744 83.8835 16.3203C84.9682 16.517 85.9572 16.5989 85.9572 17.3529C85.9572 17.8938 85.4627 18.1888 84.6811 18.1888C83.8197 18.1888 83.2773 17.779 83.1816 16.9431H80.725C80.8047 18.7952 82.3042 19.9261 84.697 19.9261Z" fill="white"/>
<path d="M91.9451 19.9098C93.0777 19.9098 93.7956 19.4508 94.3858 18.6313H94.4337V19.6639H96.9222V11.2721H94.322V15.9597C94.322 16.9595 93.7796 17.6479 92.8863 17.6479C92.0568 17.6479 91.658 17.1398 91.658 16.2219V11.2721H89.0738V16.7792C89.0738 18.6477 90.0628 19.9098 91.9451 19.9098Z" fill="white"/>
<path d="M98.0531 19.6639H100.653V14.9599C100.653 13.9601 101.132 13.2553 101.945 13.2553C102.727 13.2553 103.094 13.7798 103.094 14.6813V19.6639H105.694V14.9599C105.694 13.9601 106.157 13.2553 106.986 13.2553C107.768 13.2553 108.135 13.7798 108.135 14.6813V19.6639H110.735V14.206C110.735 12.3211 109.81 11.0262 107.959 11.0262C106.907 11.0262 106.029 11.4852 105.391 12.5014H105.359C104.944 11.5999 104.131 11.0262 103.062 11.0262C101.882 11.0262 101.1 11.5999 100.59 12.4686H100.542V11.2721H98.0531V19.6639Z" fill="white"/>
<path fill-rule="evenodd" clip-rule="evenodd" d="M5.75276 2.65764C4.80185 3.34081 3.94196 4.14854 3.1955 5.05781C6.24588 4.76683 10.1213 5.24196 14.6206 7.55341C19.4252 10.0216 23.2941 10.1051 25.9867 9.57146C25.7424 8.81143 25.4347 8.08097 25.0704 7.38657C21.9882 7.72059 18.0367 7.27847 13.4316 4.91274C10.5073 3.41044 7.92958 2.79159 5.75276 2.65764ZM23.2699 4.75339C20.8358 1.95909 17.2985 0.200562 13.3614 0.200562C12.2052 0.200562 11.0834 0.352244 10.0139 0.63728C11.4624 1.04335 13.0011 1.63743 14.6206 2.46943C17.9922 4.20151 20.903 4.7592 23.2699 4.75339ZM26.5624 12.2392C23.3095 12.8992 18.8176 12.7637 13.4316 9.99672C8.39631 7.40993 4.38866 7.44251 1.68576 8.05967C1.54624 8.09149 1.41001 8.12495 1.27707 8.15978C0.923195 8.95054 0.640719 9.78208 0.43804 10.6456C0.654512 10.5862 0.878203 10.5297 1.109 10.477C4.38809 9.72826 9.02117 9.76077 14.6206 12.6374C19.6559 15.2242 23.6635 15.1916 26.3665 14.5744C26.4591 14.5533 26.5503 14.5315 26.6401 14.509C26.6499 14.2936 26.6548 14.0769 26.6548 13.8591C26.6548 13.311 26.6234 12.7705 26.5624 12.2392ZM26.206 17.3914C22.9847 17.97 18.6236 17.7479 13.4316 15.0807C8.39631 12.4939 4.38866 12.5265 1.68576 13.1436C1.08579 13.2806 0.546073 13.4474 0.0699635 13.6235C0.0686654 13.7019 0.0680161 13.7804 0.0680161 13.8591C0.0680161 21.4025 6.01967 27.5176 13.3614 27.5176C19.5143 27.5176 24.6909 23.2226 26.206 17.3914Z" fill="white"/>
</g>
<defs>
<clipPath id="clip0_329_9462">
<rect width="111" height="28" fill="white"/>
</clipPath>
</defs>
</svg>
