<svg width="10" height="160" viewBox="0 0 10 160" fill="none" xmlns="http://www.w3.org/2000/svg">
<g opacity="0.3">
<line x1="4.94975" y1="2.18557e-08" x2="4.94974" y2="148" stroke="url(#paint0_linear_329_44)"/>
<path d="M2.47487 152.025C1.98539 152.515 1.65205 153.138 1.517 153.817C1.38195 154.496 1.45126 155.2 1.71617 155.839C1.98108 156.479 2.42968 157.026 3.00525 157.41C3.58082 157.795 4.25751 158 4.94975 158C5.64198 158 6.31867 157.795 6.89424 157.41C7.46982 157.026 7.91842 156.479 8.18333 155.839C8.44823 155.2 8.51754 154.496 8.3825 153.817C8.24745 153.138 7.91411 152.515 7.42462 152.025" stroke="#989898"/>
</g>
<defs>
<linearGradient id="paint0_linear_329_44" x1="3.94975" y1="-2.18557e-08" x2="3.94974" y2="148" gradientUnits="userSpaceOnUse">
<stop stop-color="#0D0D10"/>
<stop offset="1" stop-color="#999999"/>
</linearGradient>
</defs>
</svg>
