<svg width="11" height="160" viewBox="0 0 11 160" fill="none" xmlns="http://www.w3.org/2000/svg">
<line x1="5.5" y1="2.18557e-08" x2="5.49999" y2="148" stroke="url(#paint0_linear_2322_3)"/>
<path d="M3.02513 152.025C2.53564 152.515 2.2023 153.138 2.06725 153.817C1.9322 154.496 2.00151 155.2 2.26642 155.839C2.53133 156.479 2.97993 157.026 3.5555 157.41C4.13108 157.795 4.80777 158 5.5 158C6.19223 158 6.86892 157.795 7.4445 157.41C8.02007 157.026 8.46867 156.479 8.73358 155.839C8.99849 155.2 9.0678 154.496 8.93275 153.817C8.7977 153.138 8.46436 152.515 7.97487 152.025" stroke="#989898"/>
<defs>
<linearGradient id="paint0_linear_2322_3" x1="4.5" y1="-2.18557e-08" x2="4.49999" y2="148" gradientUnits="userSpaceOnUse">
<stop stop-color="#0D0D10"/>
<stop offset="1" stop-color="#999999"/>
</linearGradient>
</defs>
</svg>
