<svg width="24" height="24" viewBox="0 0 24 24" fill="none" xmlns="http://www.w3.org/2000/svg">
<path opacity="0.5" d="M4.08301 10.894C4.52201 8.554 4.741 7.383 5.574 6.691C6.408 6 7.598 6 9.98 6H14.02C16.403 6 17.593 6 18.427 6.691C19.26 7.383 19.479 8.553 19.918 10.894L20.668 14.894C21.285 18.186 21.594 19.832 20.694 20.916C19.794 22 18.12 22 14.771 22H9.23C5.881 22 4.206 22 3.307 20.916C2.407 19.832 2.716 18.186 3.333 14.894L4.08301 10.894Z" fill="white"/>
<path d="M9.75 5C9.75 4.40326 9.98705 3.83097 10.409 3.40901C10.831 2.98705 11.4033 2.75 12 2.75C12.5967 2.75 13.169 2.98705 13.591 3.40901C14.0129 3.83097 14.25 4.40326 14.25 5V6C14.816 6 15.312 6.002 15.75 6.015V5C15.75 4.00544 15.3549 3.05161 14.6517 2.34835C13.9484 1.64509 12.9946 1.25 12 1.25C11.0054 1.25 10.0516 1.64509 9.34835 2.34835C8.64509 3.05161 8.25 4.00544 8.25 5V6.015C8.688 6.002 9.184 6 9.75 6V5ZM11.043 15.866C10.165 15.22 9 14.18 9 13.196C9 11.524 10.65 10.899 12 12.191C13.35 10.899 15 11.523 15 13.197C15 14.181 13.835 15.221 12.957 15.866C12.537 16.174 12.327 16.328 12 16.328C11.672 16.328 11.463 16.174 11.043 15.866Z" fill="white"/>
</svg>
