<svg width="24" height="24" viewBox="0 0 24 24" fill="none" xmlns="http://www.w3.org/2000/svg">
<path fill-rule="evenodd" clip-rule="evenodd" d="M12 4C11.459 4 10.966 4.293 9.98 4.88L7.02 6.637C6.035 7.223 5.541 7.517 5.27 7.999C5 8.483 5 9.069 5 10.241V13.759C5 14.931 5 15.517 5.27 16C5.541 16.483 6.035 16.776 7.02 17.362L9.98 19.121C10.966 19.707 11.459 20 12 20C12.541 20 13.034 19.707 14.02 19.12L16.98 17.362C17.965 16.776 18.459 16.482 18.73 16C19 15.517 19 14.931 19 13.759V10.24C19 9.07 19 8.483 18.73 8C18.459 7.517 17.965 7.224 16.98 6.638L14.02 4.879C13.036 4.293 12.542 4 12 4ZM16.384 15.144C16.5498 15.0398 16.6683 14.8748 16.7141 14.6844C16.7599 14.4939 16.7294 14.2931 16.6291 14.1249C16.5288 13.9566 16.3666 13.8343 16.1773 13.7841C15.988 13.7338 15.7865 13.7596 15.616 13.856L11.616 16.24C11.4502 16.3442 11.3317 16.5092 11.2859 16.6996C11.2401 16.8901 11.2706 17.0909 11.3709 17.2591C11.4712 17.4274 11.6334 17.5497 11.8227 17.5999C12.012 17.6502 12.2135 17.6244 12.384 17.528L16.384 15.144Z" fill="white"/>
<path opacity="0.5" d="M18.971 8.91998C18.939 8.53798 18.872 8.25498 18.729 7.99998C18.6286 7.82442 18.4987 7.66746 18.345 7.53598L21.585 5.37598C21.6668 5.31794 21.7595 5.27692 21.8575 5.25534C21.9555 5.23376 22.0568 5.23207 22.1555 5.25036C22.2542 5.26864 22.3481 5.30654 22.4319 5.36181C22.5156 5.41708 22.5875 5.48859 22.6431 5.57211C22.6987 5.65564 22.737 5.74947 22.7557 5.84805C22.7744 5.94664 22.7731 6.04797 22.7519 6.14606C22.7307 6.24414 22.6901 6.33698 22.6324 6.41907C22.5747 6.50116 22.5011 6.57084 22.416 6.62398L18.971 8.91998ZM5.02899 15.08C5.06099 15.462 5.12799 15.745 5.27099 16C5.36699 16.172 5.49099 16.32 5.65599 16.464L2.41599 18.624C2.33408 18.6799 2.24188 18.719 2.14474 18.7391C2.04761 18.7591 1.94746 18.7597 1.85009 18.7408C1.75273 18.7219 1.66008 18.6838 1.57752 18.6289C1.49495 18.5739 1.42411 18.5031 1.3691 18.4206C1.31408 18.3381 1.27598 18.2454 1.25699 18.1481C1.23801 18.0507 1.23853 17.9506 1.25852 17.8534C1.2785 17.7563 1.31756 17.6641 1.37343 17.5821C1.4293 17.5001 1.50087 17.4301 1.58399 17.376L5.02899 15.08ZM5.65599 7.53598C5.50158 7.66728 5.371 7.82425 5.26999 7.99998C5.12699 8.25498 5.05999 8.53798 5.02799 8.91998L1.58399 6.62398C1.42089 6.51264 1.30829 6.34146 1.27062 6.1476C1.23296 5.95374 1.27327 5.75285 1.38282 5.58853C1.49236 5.42422 1.66229 5.30974 1.85573 5.26994C2.04916 5.23015 2.25048 5.26825 2.41599 5.37598L5.65599 7.53598Z" fill="white"/>
</svg>
