<svg width="33" height="28" viewBox="0 0 33 28" fill="none" xmlns="http://www.w3.org/2000/svg">
<path fill-rule="evenodd" clip-rule="evenodd" d="M9.26864 4.65858L13.9272 0V13.9757H18.5373V0L23.2444 4.65858V9.26863L27.903 4.65858H32.416L18.5373 18.6343H13.9272L9.26864 13.9432L0.0485336 4.65858H4.65859L9.26864 9.26863V4.65858ZM4.65859 14.0243H9.26864V18.6828L9.24463 18.6586L4.6106 23.3409L4.65858 23.2929H9.26863L4.61005 28L0 27.9515L4.61005 23.3414L0 23.2929L4.65858 18.6343H9.22062L4.65859 14.0243ZM23.3414 13.9757H27.9029L23.3414 18.5373L23.3414 18.5373V13.9757ZM23.3414 18.5373H27.9756L32.6586 23.2439L28.0244 23.2929L23.3414 18.5373ZM27.9756 23.2929L32.6586 27.9034L28.0244 27.9515L23.3414 23.2929H27.9756ZM9.26864 18.6828V23.2929L13.9272 27.9515H18.5373L23.2929 23.2929V18.6828L18.5373 23.2929H13.9272L9.26864 18.6828Z" fill="white"/>
</svg>
